<?xml version="1.0" encoding="UTF-8"?>
<svg id="Layer_2" data-name="Layer 2" xmlns="http://www.w3.org/2000/svg" viewBox="0 0 148 148">
  <defs>
    <style>
      .cls-1 {
        fill: #0c0c0c;
      }

      .cls-2 {
        fill: none;
      }
    </style>
  </defs>
  <g id="Layer_1-2" data-name="Layer 1">
    <g>
      <g>
        <path d="m74,139.57l-42.55-63.22c-3.73-6.66-5.7-14.19-5.7-21.77,0-1.44.07-2.93.22-4.41,2.38-23.8,23.03-41.73,48.03-41.73s45.65,17.93,48.03,41.71c.15,1.51.22,2.99.22,4.44,0,7.59-1.97,15.11-5.7,21.77l-.28.46-42.27,62.77Zm-31.33-69.8l31.33,46.52,31.33-46.52c2.6-4.73,3.92-9.84,3.92-15.2,0-1.03-.05-2.09-.16-3.16-1.71-17.08-16.8-29.98-35.09-29.98s-33.38,12.9-35.09,30c-.1,1.05-.15,2.11-.15,3.14,0,5.36,1.32,10.47,3.92,15.2Z"/>
        <path class="cls-1" d="m88.7,34.93h-29.4c-.7,0-1.34.41-1.62,1.04l-8.53,19.15c-.1.22-.15.45-.15.69v16.14c0,.36.12.72.33,1.01l3.14,4.25c.33.45.87.72,1.43.72h3.91c.98,0,1.77-.77,1.77-1.73v-1.97c0-.93.76-1.7,1.71-1.73l12.65-.39s.08,0,.11,0l12.65.39c.95.03,1.71.79,1.71,1.73v1.97c0,.95.79,1.73,1.77,1.73h3.91c.57,0,1.1-.27,1.43-.72l3.14-4.25c.22-.29.33-.65.33-1.01v-16.14c0-.24-.05-.47-.15-.69l-8.53-19.15c-.28-.63-.92-1.04-1.62-1.04Zm-24.29,27.95l-1.37,1.35c-.33.33-.78.51-1.25.51h-4.5c-.47,0-.93-.19-1.26-.51l-.98-.97c-.82-.8-.82-2.09,0-2.89l.98-.97c.33-.33.79-.51,1.26-.51h4.5c.47,0,.92.18,1.25.51l1.37,1.35c.6.6.6,1.55,0,2.15Zm-8.91-10.17v-1.28c0-.25.05-.49.16-.71l4.37-9.4c.29-.62.92-1.01,1.61-1.01h24.72c.69,0,1.32.4,1.61,1.01l4.37,9.4c.1.22.16.47.16.71v1.28c0,.95-.79,1.73-1.77,1.73h-33.46c-.98,0-1.77-.77-1.77-1.73Zm37.45,10.54l-.98.97c-.33.33-.79.51-1.26.51h-4.5c-.47,0-.92-.18-1.25-.51l-1.37-1.35c-.6-.6-.6-1.55,0-2.15l1.37-1.35c.33-.33.78-.51,1.25-.51h4.5c.47,0,.93.19,1.26.51l.98.97c.82.8.82,2.09,0,2.89Z"/>
      </g>
      <rect class="cls-2" width="148" height="148"/>
    </g>
  </g>
</svg>